<svg width="90" height="80" viewBox="0 0 90 80" fill="none" xmlns="http://www.w3.org/2000/svg">
<g clip-path="url(#clip0_956_5141)">
<path fill-rule="evenodd" clip-rule="evenodd" d="M87.5165 75.0687C86.9067 76.138 86.023 77.0259 84.9561 77.6412C83.8893 78.2566 82.6777 78.5774 81.4457 78.5706H8.42935C7.19736 78.5775 5.9857 78.2569 4.91869 77.6417C3.85168 77.0265 2.96772 76.1388 2.3575 75.0697C1.73526 74.0074 1.40731 72.7987 1.40731 71.5679C1.40731 70.3371 1.73526 69.1285 2.3575 68.0661L38.8667 4.90448C39.4762 3.8353 40.3598 2.94748 41.4265 2.33224C42.4933 1.71699 43.7047 1.39649 44.9365 1.40366C47.4705 1.40366 49.7404 2.71222 51.0084 4.90448L87.5155 68.0661C88.1382 69.1281 88.4666 70.3366 88.4667 71.5673C88.4669 72.798 88.1389 74.0066 87.5165 75.0687ZM88.7325 67.3643L52.2243 4.20272C51.4925 2.91926 50.4318 1.85353 49.1512 1.11496C47.8706 0.376394 46.4162 -0.00838575 44.9375 0.000138616C43.4591 -0.0083081 42.005 0.376405 40.7246 1.11478C39.4442 1.85316 38.3836 2.9186 37.6517 4.20172L1.14053 67.3653C0.393654 68.6403 0 70.0908 0 71.5679C0 73.0451 0.393654 74.4956 1.14053 75.7705C1.87254 77.054 2.93344 78.1197 4.21424 78.8581C5.49504 79.5965 6.94955 79.981 8.42835 79.9721H81.4467C82.9254 79.9809 84.3797 79.5964 85.6603 78.858C86.9409 78.1196 88.0017 77.0539 88.7335 75.7705C89.4807 74.4953 89.8745 73.0444 89.8745 71.5669C89.8745 70.0894 89.4807 68.6385 88.7335 67.3633" fill="black"/>
<path fill-rule="evenodd" clip-rule="evenodd" d="M81.4456 75.0618H8.42822C5.73506 75.0618 4.05172 72.1498 5.39879 69.8206L41.907 6.658C42.2117 6.12465 42.6529 5.68183 43.1854 5.37495C43.718 5.06806 44.3226 4.90814 44.9374 4.91159C46.1153 4.91159 47.2933 5.49339 47.9668 6.658L84.474 69.8206C85.821 72.1498 84.1377 75.0618 81.4456 75.0618ZM87.5154 68.0662L51.0082 4.90359C50.3983 3.83447 49.5146 2.94673 48.4477 2.33151C47.3808 1.71628 46.1693 1.39574 44.9374 1.40278C42.4024 1.40278 40.1335 2.71233 38.8655 4.90359L2.35837 68.0672C1.73563 69.1294 1.40738 70.3381 1.40738 71.569C1.40738 72.8 1.73563 74.0087 2.35837 75.0708C2.96818 76.14 3.85191 77.0278 4.9188 77.6431C5.9857 78.2583 7.19731 78.5788 8.42922 78.5717H81.4456C83.9796 78.5717 86.2494 77.2621 87.5164 75.0698C88.1388 74.0077 88.4668 72.7991 88.4666 71.5684C88.4664 70.3377 88.1381 69.1282 87.5154 68.0662Z" fill="white"/>
<path fill-rule="evenodd" clip-rule="evenodd" d="M47.9668 6.658C47.662 6.1251 47.2208 5.68272 46.6885 5.37619C46.1561 5.06967 45.5518 4.91001 44.9373 4.91359C44.3226 4.91014 43.7179 5.07006 43.1854 5.37694C42.6529 5.68383 42.2117 6.12664 41.9069 6.66L5.39976 69.8216C4.05269 72.1508 5.73603 75.0629 8.42918 75.0629H81.4455C84.1377 75.0629 85.821 72.1508 84.4749 69.8216L47.9668 6.658Z" fill="#1D1D1B"/>
<path d="M54.7443 37.5282H34.816V66.2847H55.0585V60.9537H40.6816V53.9329H53.5995V49.0115H40.6816V42.8593H54.7443V37.5282Z" fill="white"/>
</g>
<defs>
<clipPath id="clip0_956_5141">
<rect width="90" height="80" fill="white"/>
</clipPath>
</defs>
</svg>
