<svg width="90" height="80" viewBox="0 0 90 80" fill="none" xmlns="http://www.w3.org/2000/svg">
<g clip-path="url(#clip0_956_5105)">
<path fill-rule="evenodd" clip-rule="evenodd" d="M87.5456 75.0941C86.9363 76.1638 86.0534 77.052 84.9873 77.6677C83.9213 78.2833 82.7106 78.6041 81.4796 78.5971H8.52063C7.28973 78.6042 6.07912 78.2835 5.0131 77.6681C3.94707 77.0527 3.06403 76.1646 2.45463 75.0951C1.83294 74.0324 1.50519 72.8235 1.50501 71.5923C1.50483 70.3611 1.83224 69.152 2.45363 68.0891L38.9336 4.90615C39.5429 3.83631 40.426 2.948 41.4923 2.33253C42.5586 1.71705 43.7695 1.39661 45.0006 1.40415C47.5326 1.40415 49.8006 2.71315 51.0666 4.90615L87.5456 68.0891C88.1679 69.1515 88.4959 70.3605 88.4959 71.5916C88.4959 72.8228 88.1679 74.0318 87.5456 75.0941ZM88.7606 67.3871L52.2806 4.20415C51.5495 2.92034 50.4898 1.85428 49.2104 1.11546C47.931 0.376643 46.478 -0.00830794 45.0006 0.000145381C43.5232 -0.00858606 42.07 0.376129 40.7905 1.11478C39.5109 1.85342 38.451 2.91937 37.7196 4.20315L1.23963 67.3881C0.493549 68.6636 0.100327 70.1145 0.100327 71.5921C0.100327 73.0698 0.493549 74.5207 1.23963 75.7961C1.97121 77.0799 3.0313 78.1459 4.31104 78.8845C5.59078 79.6231 7.04405 80.0078 8.52163 79.9991H81.4796C82.9569 80.0079 84.41 79.6232 85.6894 78.8845C86.9688 78.1459 88.0285 77.0799 88.7596 75.7961C89.5062 74.5205 89.8997 73.0692 89.8997 71.5911C89.8997 70.1131 89.5062 68.6618 88.7596 67.3861" fill="black"/>
<path fill-rule="evenodd" clip-rule="evenodd" d="M81.4788 75.0872H8.52082C5.83082 75.0872 4.14882 72.1743 5.49382 69.8443L41.9738 6.66025C42.2781 6.12695 42.7186 5.68411 43.2503 5.37713C43.7821 5.07015 44.3858 4.91005 44.9998 4.91325C46.1768 4.91325 47.3548 5.49525 48.0278 6.66025L84.5058 69.8443C85.8518 72.1743 84.1698 75.0872 81.4788 75.0872ZM87.5448 68.0892L51.0668 4.90525C50.4573 3.83584 49.5743 2.94786 48.5083 2.33243C47.4423 1.71701 46.2317 1.39631 45.0008 1.40325C43.7699 1.39621 42.5593 1.71686 41.4933 2.3323C40.4273 2.94773 39.5442 3.83577 38.9348 4.90525L2.45482 68.0902C1.83293 69.153 1.50523 70.3621 1.50541 71.5934C1.50559 72.8247 1.83363 74.0337 2.45582 75.0963C3.06482 76.1659 3.94764 77.054 5.01354 77.6695C6.07945 78.285 7.29001 78.6055 8.52082 78.5983H81.4788C82.7099 78.6055 83.9207 78.2848 84.9868 77.6692C86.0528 77.0535 86.9358 76.1651 87.5448 75.0953C88.1671 74.0329 88.4951 72.8239 88.4951 71.5928C88.4951 70.3616 88.1671 69.1516 87.5448 68.0892Z" fill="white"/>
<path fill-rule="evenodd" clip-rule="evenodd" d="M48.0278 6.66025C47.7232 6.12724 47.2823 5.68477 46.7504 5.37815C46.2186 5.07153 45.6147 4.91178 45.0008 4.91525C44.3865 4.9117 43.7823 5.07162 43.2502 5.37862C42.7181 5.68562 42.2772 6.12865 41.9728 6.66225L5.49381 69.8453C4.14881 72.1753 5.83081 75.0882 8.52081 75.0882H81.4788C84.1708 75.0882 85.8518 72.1753 84.5068 69.8453L48.0278 6.66025Z" fill="#FBAD00"/>
<path fill-rule="evenodd" clip-rule="evenodd" d="M23.8758 41.3002H32.8748C34.3488 41.3002 35.8988 41.3002 37.4498 41.7172C40.0588 42.4362 43.7268 44.7792 43.7268 50.1862C43.7268 53.7402 42.0628 57.5592 37.2988 58.6162C35.8238 58.9592 34.4248 58.9592 32.7988 58.9592H28.9048V67.9942H23.8748L23.8758 41.3002ZM28.9048 45.5732V54.8382H32.4968C33.5558 54.8382 34.4628 54.8382 35.3318 54.6102C38.4318 53.8542 38.6208 51.0192 38.6208 50.0722C38.6208 48.1072 37.7508 47.0862 37.2988 46.6702C36.0508 45.6102 34.3118 45.5732 32.6858 45.5732H28.9048ZM69.1888 53.4002V67.9952H64.9168V65.7252C62.5348 68.0712 59.8498 68.6742 57.6188 68.6742C49.3768 68.6742 45.0288 62.0942 45.0288 54.9132C45.0288 46.5192 50.5858 40.6202 57.9208 40.6202C63.4808 40.6202 67.5628 44.0242 69.1888 48.4852L64.4238 50.4142C63.9338 48.9382 62.4978 45.1202 57.9588 45.1202C52.9308 45.1202 50.4728 49.5052 50.4728 54.7602C50.4728 60.6222 53.6868 63.9872 58.0348 63.9872C60.8348 63.9872 64.1608 62.5112 64.6148 57.7862H57.9588V53.4002H69.1888Z" fill="white"/>
</g>
<defs>
<clipPath id="clip0_956_5105">
<rect width="90" height="80" fill="white"/>
</clipPath>
</defs>
</svg>
