<svg width="90" height="80" viewBox="0 0 90 80" fill="none" xmlns="http://www.w3.org/2000/svg">
<g clip-path="url(#clip0_956_5114)">
<path fill-rule="evenodd" clip-rule="evenodd" d="M45 78.597C23.683 78.597 6.402 61.317 6.402 40C6.403 18.684 23.684 1.404 45 1.404C66.316 1.404 83.597 18.684 83.597 40C83.597 61.317 66.317 78.597 45 78.597ZM45 0C22.91 0 5 17.909 5 40C5 62.092 22.908 79.999 45 79.999C67.091 79.999 85 62.092 85 39.999C85 17.91 67.09 0 45 0Z" fill="black"/>
<path fill-rule="evenodd" clip-rule="evenodd" d="M45 75.088C25.621 75.088 9.912 59.38 9.912 40.001C9.912 20.623 25.622 4.913 45 4.913C64.38 4.913 80.088 20.623 80.088 40.001C80.088 59.38 64.379 75.088 45 75.088ZM45 1.404C23.684 1.403 6.403 18.683 6.403 40C6.403 61.317 23.684 78.596 45 78.596C66.316 78.596 83.597 61.316 83.597 40C83.597 18.684 66.317 1.403 45 1.403" fill="white"/>
<path fill-rule="evenodd" clip-rule="evenodd" d="M45 4.912C25.62 4.912 9.911 20.622 9.911 40C9.911 59.38 25.621 75.088 44.998 75.088C64.378 75.088 80.086 59.379 80.086 40C80.087 20.622 64.378 4.912 45 4.912Z" fill="#FF7D13"/>
<path fill-rule="evenodd" clip-rule="evenodd" d="M25.15 25.522V53.599H20.035V37.543C20.035 34.88 20.035 34.09 17.745 34.09H13.172V30.887H13.712C16.334 30.846 19.87 30.804 20.992 25.522H25.15ZM48.852 49.273V53.6H29.76V49.565C33.337 47.111 36.873 43.742 38.537 42.037C40.076 40.457 42.654 37.752 42.654 34.049C42.654 31.886 41.574 29.849 38.953 29.849C34.833 29.849 34.959 34.341 35.001 36.337L29.76 35.88C29.76 31.928 31.05 29.391 32.13 28.101C33.669 26.313 36.33 25.065 39.369 25.065C44.692 25.065 48.395 28.517 48.395 33.842C48.395 38.376 45.608 41.62 42.531 44.407C41.906 44.948 38.163 48.109 36.581 49.274H48.851L48.852 49.273ZM68.256 48.132H57.76L56.135 53.6H50.551L59.978 25.634H65.919L75.466 53.6H69.88L68.256 48.132ZM66.869 43.577L63.029 30.703L59.147 43.577H66.869Z" fill="white"/>
</g>
<defs>
<clipPath id="clip0_956_5114">
<rect width="90" height="80" fill="white"/>
</clipPath>
</defs>
</svg>
