<svg width="90" height="80" viewBox="0 0 90 80" fill="none" xmlns="http://www.w3.org/2000/svg">
<g clip-path="url(#clip0_955_4831)">
<path fill-rule="evenodd" clip-rule="evenodd" d="M87.4466 75.0941C86.8373 76.1637 85.9543 77.0519 84.8882 77.6675C83.8222 78.2831 82.6116 78.604 81.3806 78.5971H8.42262C7.19161 78.604 5.98092 78.2833 4.91476 77.6679C3.8486 77.0525 2.96535 76.1646 2.35562 75.0951C1.73388 74.0324 1.40618 72.8234 1.40618 71.5921C1.40618 70.3609 1.73388 69.1519 2.35562 68.0891L38.8356 4.90614C39.4447 3.8366 40.3275 2.94848 41.3934 2.33303C42.4593 1.71757 43.6698 1.39696 44.9006 1.40414C47.4326 1.40414 49.7006 2.71314 50.9676 4.90614L87.4456 68.0891C88.0678 69.1515 88.3959 70.3604 88.396 71.5915C88.3962 72.8226 88.0685 74.0316 87.4466 75.0941ZM88.6616 67.3871L52.1826 4.20414C51.4513 2.92025 50.3915 1.85416 49.1119 1.11534C47.8323 0.376521 46.3791 -0.00838858 44.9016 0.000138663C43.4244 -0.00831091 41.9715 0.376533 40.6921 1.11516C39.4127 1.85379 38.353 2.91959 37.6216 4.20314L1.13962 67.3881C0.393339 68.6635 0 70.1145 0 71.5921C0 73.0698 0.393339 74.5208 1.13962 75.7961C1.87104 77.0801 2.9311 78.1461 4.21087 78.8848C5.49065 79.6234 6.944 80.008 8.42162 79.9991H81.3816C82.8591 80.008 84.3123 79.6233 85.5919 78.8846C86.8715 78.146 87.9314 77.08 88.6626 75.7961C89.4092 74.5205 89.8027 73.0692 89.8027 71.5911C89.8027 70.1131 89.4092 68.6618 88.6626 67.3861" fill="black"/>
<path fill-rule="evenodd" clip-rule="evenodd" d="M81.3805 75.0872H8.42146C5.73046 75.0872 4.04846 72.1743 5.39446 69.8443L41.8735 6.66025C42.1779 6.12672 42.6188 5.68375 43.1509 5.37676C43.683 5.06977 44.2872 4.9098 44.9015 4.91325C46.0785 4.91325 47.2555 5.49525 47.9285 6.66025L84.4065 69.8443C85.7525 72.1743 84.0705 75.0872 81.3805 75.0872ZM87.4455 68.0892L50.9675 4.90525C50.3581 3.83577 49.475 2.94773 48.409 2.3323C47.343 1.71686 46.1324 1.39621 44.9015 1.40325C42.3685 1.40325 40.1015 2.71325 38.8345 4.90525L2.35646 68.0902C1.73422 69.1528 1.40623 70.3619 1.40623 71.5933C1.40623 72.8246 1.73422 74.0337 2.35646 75.0963C2.96579 76.1658 3.84881 77.0539 4.91485 77.6693C5.9809 78.2848 7.19154 78.6054 8.42246 78.5983H81.3805C83.9125 78.5983 86.1805 77.2883 87.4465 75.0953C88.0684 74.0327 88.3961 72.8238 88.3959 71.5926C88.3957 70.3615 88.0677 69.1516 87.4455 68.0892Z" fill="white"/>
<path fill-rule="evenodd" clip-rule="evenodd" d="M47.9285 6.66025C47.6239 6.12717 47.1831 5.68464 46.6512 5.37801C46.1193 5.07138 45.5154 4.91168 44.9015 4.91525C44.2872 4.9118 43.683 5.07177 43.1509 5.37876C42.6188 5.68575 42.1779 6.12872 41.8735 6.66225L5.39546 69.8453C4.04946 72.1753 5.73146 75.0882 8.42246 75.0882H81.3805C84.0705 75.0882 85.7525 72.1753 84.4075 69.8453L47.9285 6.66025Z" fill="#0AC700"/>
<path fill-rule="evenodd" clip-rule="evenodd" d="M56.1705 38.5452V56.1712C56.1305 59.3412 56.1305 61.9532 53.1595 64.4872C50.3085 66.9842 46.6245 67.2222 44.7245 67.2222C43.0205 67.2222 41.3565 67.0242 39.7715 66.4702C36.4435 65.3202 34.6615 62.9042 34.0275 60.8062C33.6715 59.5782 33.6715 58.7062 33.6315 55.2202V38.5452H38.8605V55.7352C38.8605 56.9252 38.8205 58.0722 39.2175 59.1432C40.2865 61.8352 43.2175 62.1512 44.8815 62.1512C45.7135 62.1512 47.8135 62.1122 49.3575 60.7662C50.9015 59.3802 50.9015 57.7962 50.9015 55.4582V38.5452H56.1705Z" fill="white"/>
</g>
<defs>
<clipPath id="clip0_955_4831">
<rect width="90" height="80" fill="white"/>
</clipPath>
</defs>
</svg>
