<svg width="90" height="80" viewBox="0 0 90 80" fill="none" xmlns="http://www.w3.org/2000/svg">
<path fill-rule="evenodd" clip-rule="evenodd" d="M44.9995 78.597C23.6845 78.597 6.4035 61.317 6.4035 40C6.4035 18.684 23.6845 1.404 44.9995 1.404C66.3145 1.404 83.5965 18.684 83.5965 40C83.5965 61.317 66.3145 78.597 44.9995 78.597ZM44.9995 0C22.9095 0 5.0005 17.909 5.0005 40C5.0005 62.092 22.9085 79.999 45.0005 79.999C67.0915 79.999 85.0005 62.092 85.0005 39.999C84.9995 17.91 67.0905 0 44.9995 0Z" fill="black"/>
<path fill-rule="evenodd" clip-rule="evenodd" d="M44.9995 75.088C25.6215 75.088 9.9125 59.38 9.9125 40.001C9.9125 20.623 25.6225 4.91301 44.9995 4.91301C64.3795 4.91301 80.0875 20.623 80.0875 40.001C80.0875 59.38 64.3795 75.088 44.9995 75.088ZM44.9995 1.40401C23.6845 1.40301 6.4035 18.683 6.4035 40C6.4035 61.317 23.6845 78.596 44.9995 78.596C66.3145 78.596 83.5965 61.316 83.5965 40C83.5965 18.685 66.3145 1.40401 44.9995 1.40401Z" fill="white"/>
<path fill-rule="evenodd" clip-rule="evenodd" d="M44.9995 4.912C25.6215 4.912 9.91251 20.622 9.91251 40C9.91251 59.38 25.6225 75.088 44.9995 75.088C64.3795 75.088 80.0875 59.379 80.0875 40C80.0875 20.622 64.3795 4.912 44.9995 4.912Z" fill="#FB4F93"/>
<path fill-rule="evenodd" clip-rule="evenodd" d="M37.1795 25.52V53.598H32.0645V37.542C32.0645 34.879 32.0645 34.09 29.7745 34.09H25.2005V30.887H25.7405C28.3625 30.845 31.8975 30.804 33.0205 25.521L37.1795 25.52ZM58.9685 30.138H48.0295L47.0725 36.335C48.3195 35.088 50.3165 34.255 52.4795 34.255C57.4705 34.255 61.0065 37.957 61.0065 43.615C61.0065 49.397 57.2215 53.972 50.5665 53.972C48.6945 53.972 46.8635 53.64 45.2405 52.808C41.3305 50.728 41.0405 47.108 40.9155 45.737L46.7395 45.32C46.8635 48.19 48.6525 49.48 50.7745 49.48C51.7315 49.48 52.5625 49.272 53.2275 48.814C54.4755 47.982 55.3495 46.028 55.3495 43.823C55.3495 40.328 53.1865 38.54 50.6915 38.54C48.7775 38.54 47.1555 39.414 46.4895 41.16L41.7885 40.87L43.7845 25.437H59.3845L58.9685 30.137V30.138Z" fill="white"/>
</svg>
