<svg width="90" height="80" viewBox="0 0 90 80" fill="none" xmlns="http://www.w3.org/2000/svg">
<path fill-rule="evenodd" clip-rule="evenodd" d="M45 78.597C23.686 78.597 6.404 61.317 6.404 40C6.404 18.684 23.686 1.404 45 1.404C66.316 1.404 83.598 18.684 83.598 40C83.598 61.317 66.316 78.597 45 78.597ZM45 0C22.909 0 5 17.909 5 40C5 62.092 22.91 79.999 45 79.999C67.093 79.999 85 62.092 85 39.999C85 17.91 67.093 0 45 0Z" fill="black"/>
<path fill-rule="evenodd" clip-rule="evenodd" d="M45 75.088C25.622 75.088 9.913 59.38 9.913 40.001C9.913 20.623 25.622 4.91301 45 4.91301C64.379 4.91301 80.088 20.623 80.088 40.001C80.088 59.38 64.378 75.088 45 75.088ZM45 1.40401C23.686 1.40301 6.404 18.683 6.404 40C6.404 61.317 23.686 78.596 45 78.596C66.316 78.596 83.598 61.316 83.598 40C83.598 18.685 66.316 1.40401 45 1.40401Z" fill="white"/>
<path fill-rule="evenodd" clip-rule="evenodd" d="M45 4.912C25.622 4.912 9.913 20.622 9.913 40C9.913 59.38 25.622 75.088 45 75.088C64.379 75.088 80.088 59.379 80.088 40C80.088 20.622 64.378 4.912 45 4.912Z" fill="#FF7D13"/>
<path fill-rule="evenodd" clip-rule="evenodd" d="M37.186 25.522V53.599H32.07V37.543C32.07 34.88 32.07 34.09 29.78 34.09H25.206V30.887H25.746C28.368 30.846 31.904 30.804 33.026 25.522H37.186ZM60.887 49.273V53.6H41.794V49.566C45.372 47.111 48.908 43.742 50.574 42.037C52.112 40.457 54.69 37.752 54.69 34.049C54.69 31.886 53.61 29.849 50.99 29.849C46.87 29.849 46.994 34.341 47.036 36.337L41.794 35.88C41.794 31.928 43.085 29.391 44.165 28.101C45.705 26.313 48.366 25.066 51.405 25.066C56.727 25.066 60.429 28.517 60.429 33.842C60.429 38.376 57.643 41.622 54.567 44.407C53.942 44.948 50.199 48.109 48.617 49.274L60.887 49.273Z" fill="white"/>
</svg>
